#N canvas 423 88 1239 764 12;
#X obj 355 49 inlet;
#X obj 388 620 sampling.core sampleWave window, f 89;
#X obj 850 143 dbtopow;
#X obj 851 115 + 100;
#X obj 971 123 int;
#X obj 766 175 select 0;
#X msg 905 310 0 \$2;
#X obj 905 277 pack;
#X obj 932 348 line;
#X obj 932 397 pipe;
#X obj 766 199 0;
#X obj 974 278 pack;
#X msg 974 310 \$1 \$2;
#X obj 355 188 - 60;
#X obj 355 233 +;
#X obj 894 527 pipe;
#X obj 831 201 *;
#X obj 474 501 pack 0 f f f;
#X msg 474 525 \$2 \, \$3 \$4;
#X obj 666 222 spigot;
#X obj 683 370 spigot;
#X obj 340 335 pow;
#X obj 358 304 / 12;
#X obj 295 305 float 2;
#X obj 343 423 /;
#X obj 341 369 t b f;
#X obj 334 268 t b f;
#X obj 683 121 s \$0-t1;
#X obj 266 394 value \$0-t1;
#X obj 365 450 spigot;
#X obj 306 516 pipe;
#X obj 369 553 t b f;
#X obj 369 584 delay;
#X msg 369 528 \$4;
#X msg 628 548 stop \, 0;
#X obj 356 153 spigot;
#X obj 399 124 > 0;
#X obj 148 270 spigot;
#X obj 148 378 timer;
#X obj 148 305 select 0;
#X obj 201 331 t b;
#X obj 147 403 +;
#X obj 194 242 == 2;
#X obj 705 194 == 1;
#X obj 406 421 == 0;
#X obj 724 341 == 2;
#X obj 355 83 unpack f f f f f f f f f f f f, f 97;
#X obj 1028 115 + 1;
#X obj 1028 139 * 4096;
#X msg 312 553 stop;
#X connect 0 0 46 0;
#X connect 2 0 16 1;
#X connect 3 0 2 0;
#X connect 4 0 42 0;
#X connect 4 0 43 0;
#X connect 4 0 44 0;
#X connect 4 0 45 1;
#X connect 5 0 10 0;
#X connect 5 1 16 0;
#X connect 6 0 8 0;
#X connect 7 0 6 0;
#X connect 8 0 9 0;
#X connect 9 0 1 3;
#X connect 10 0 7 0;
#X connect 11 0 12 0;
#X connect 12 0 8 0;
#X connect 13 0 14 0;
#X connect 14 0 15 0;
#X connect 14 0 26 0;
#X connect 15 0 1 2;
#X connect 16 0 11 0;
#X connect 17 0 18 0;
#X connect 17 0 33 0;
#X connect 18 0 1 1;
#X connect 19 0 17 3;
#X connect 20 0 17 3;
#X connect 21 0 25 0;
#X connect 22 0 21 1;
#X connect 23 0 21 0;
#X connect 24 0 29 0;
#X connect 25 0 28 0;
#X connect 25 1 24 1;
#X connect 26 0 23 0;
#X connect 26 0 30 0;
#X connect 26 1 22 0;
#X connect 28 0 24 0;
#X connect 29 0 17 3;
#X connect 30 0 17 0;
#X connect 31 0 32 0;
#X connect 31 1 32 1;
#X connect 32 0 34 0;
#X connect 32 0 1 0;
#X connect 33 0 31 0;
#X connect 34 0 8 0;
#X connect 35 0 13 0;
#X connect 35 0 49 0;
#X connect 36 0 35 1;
#X connect 37 0 39 0;
#X connect 38 0 41 0;
#X connect 39 0 38 1;
#X connect 39 1 40 0;
#X connect 40 0 38 0;
#X connect 41 0 17 3;
#X connect 42 0 37 1;
#X connect 43 0 19 1;
#X connect 44 0 29 1;
#X connect 45 0 20 1;
#X connect 46 0 35 0;
#X connect 46 1 5 0;
#X connect 46 1 36 0;
#X connect 46 1 37 0;
#X connect 46 2 17 1;
#X connect 46 3 17 2;
#X connect 46 4 14 1;
#X connect 46 5 19 0;
#X connect 46 5 27 0;
#X connect 46 6 11 1;
#X connect 46 7 7 1;
#X connect 46 7 41 1;
#X connect 46 8 3 0;
#X connect 46 9 9 1;
#X connect 46 9 15 1;
#X connect 46 9 30 1;
#X connect 46 9 20 0;
#X connect 46 10 4 0;
#X connect 46 11 47 0;
#X connect 47 0 48 0;
#X connect 48 0 1 4;
#X connect 49 0 32 0;
