#N canvas 344 88 1487 827 12;
#X obj 599 971 dac~;
#X obj 593 551 phasor~;
#X floatatom 594 508 5 0 0 0 - - -;
#X obj 681 640 samphold~;
#X obj 241 154 line~;
#X obj 1112 640 samphold~;
#X obj 1015 551 +~ 0.5;
#X obj 1015 592 wrap~;
#X obj 595 640 *~ 4096;
#X obj 1015 633 *~ 4096;
#X floatatom 509 290 5 0 0 0 - - -;
#X obj 509 234 samplerate~;
#X obj 509 102 loadbang;
#X obj 428 149 receive pd;
#X obj 428 177 route dsp;
#X obj 428 205 sel 1;
#X obj 428 233 bng 15 250 50 0 empty empty empty 17 7 0 10 -262144
-1 -1;
#X obj 644 257 pow;
#X floatatom 644 295 5 0 0 0 - - -;
#X obj 678 193 / 12;
#X obj 597 196 float 2;
#X obj 647 143 t b f;
#X obj 592 337 *;
#X obj 509 262 / 4096;
#X obj 647 48 inlet;
#X obj 238 56 inlet;
#X obj 594 740 tabread4~ \$1;
#X obj 698 740 tabread4~ \$2;
#X obj 1014 698 tabread4~ \$1;
#X obj 1109 698 tabread4~ \$2;
#X obj 1086 41 inlet;
#X obj 597 905 *~;
#X obj 1086 105 /~ 127;
#X obj 595 784 *~;
#X obj 1014 739 *~;
#X obj 595 839 *~ 0.5;
#X text 708 108 // Convert pitch to frequency;
#X text 273 716 // Parameter 1: sound wave;
#X text 270 755 // Parameter 2: window (Hanning function);
#X obj 96 115 int 0;
#X obj 96 52 inlet;
#X text 97 28 // Force stop;
#X text 237 32 // Playback control;
#X text 647 23 // Pitch control;
#X text 1085 14 // Volume control;
#X msg 127 84 stop;
#X connect 1 0 3 1;
#X connect 1 0 6 0;
#X connect 1 0 8 0;
#X connect 2 0 1 0;
#X connect 3 0 26 0;
#X connect 4 0 3 0;
#X connect 4 0 5 0;
#X connect 5 0 28 0;
#X connect 6 0 7 0;
#X connect 7 0 5 1;
#X connect 7 0 9 0;
#X connect 8 0 26 0;
#X connect 8 0 27 0;
#X connect 9 0 28 0;
#X connect 9 0 29 0;
#X connect 10 0 22 0;
#X connect 11 0 23 0;
#X connect 12 0 11 0;
#X connect 13 0 14 0;
#X connect 14 0 15 0;
#X connect 15 0 11 0;
#X connect 16 0 11 0;
#X connect 17 0 18 0;
#X connect 18 0 22 1;
#X connect 19 0 17 1;
#X connect 20 0 17 0;
#X connect 21 0 20 0;
#X connect 21 0 11 0;
#X connect 21 1 19 0;
#X connect 22 0 2 0;
#X connect 23 0 10 0;
#X connect 24 0 21 0;
#X connect 25 0 4 0;
#X connect 26 0 33 0;
#X connect 27 0 33 1;
#X connect 28 0 34 0;
#X connect 29 0 34 1;
#X connect 30 0 32 0;
#X connect 31 0 0 0;
#X connect 31 0 0 1;
#X connect 32 0 31 1;
#X connect 33 0 35 0;
#X connect 34 0 35 0;
#X connect 35 0 31 0;
#X connect 39 0 32 0;
#X connect 39 0 4 0;
#X connect 39 0 1 0;
#X connect 40 0 39 0;
#X connect 40 0 45 0;
#X connect 45 0 4 0;
