#N canvas -8 -8 1920 997 12;
#X obj 238 24 bng 15 250 50 0 \$0-loadWav empty empty 17 7 0 10 -262144
-1 -1;
#X obj 20 583 s camomile;
#X obj 20 805 soundfiler;
#X obj 20 663 symbol;
#X obj 23 1306 dac~;
#X msg 20 543 openpanel -s;
#X obj 20 623 r openpanel;
#X obj 21 1146 line~;
#X floatatom 124 1281 5 0 0 0 - - -;
#X msg 122 701 default.wav;
#X obj 130 619 openpanel;
#X obj 130 583 bng 15 250 50 0 empty empty empty 17 7 0 10 -262144
-1 -1;
#X obj 829 46 param.change;
#X obj 829 108 gui.link 2 \$0-pitch;
#X obj 829 77 gui.link 1 \$0-volume;
#X text 152 582 // For test in Pd;
#X obj 122 669 loadbang;
#X obj 402 24 tgl 15 0 \$0-autoPitch empty empty 17 7 0 10 -262144
-1 -1 0 1;
#X text 427 23 Enable Auto Pitch Detection;
#X floatatom 247 1281 5 0 0 0 - - -;
#X obj 45 111 hsl 128 15 -50 10 0 0 \$0-volume-sld-s \$0-volume-sld-r
empty -2 -8 0 10 -262144 -1 -1 0 1;
#X obj 183 112 nbx 5 14 -50 10 0 0 \$0-volume-nbx-s \$0-volume-nbx-r
empty 0 -8 0 10 -262144 -1 -1 0 256;
#X text 242 110 dB;
#X text 11 58 [Sample Setting];
#X obj 45 152 hsl 128 15 -24 24 0 0 \$0-pitch-sld-s \$0-pitch-sld-r
empty -2 -8 0 10 -262144 -1 -1 0 1;
#X obj 183 153 nbx 5 14 -24 24 0 0 \$0-pitch-nbx-s \$0-pitch-nbx-r
empty 0 -8 0 10 -262144 -1 -1 0 256;
#X text 19 474 // Load .wav sample;
#X text 90 1068 // Preview the sample & pitch detection;
#X floatatom 124 955 5 0 0 0 - - -;
#X obj 125 877 /;
#X obj 124 914 * 1000;
#X obj 121 836 t f;
#X text 120 986 // Sample length in ms;
#X msg 21 1106 0 \, \$1 \$2;
#X obj 21 1067 pack f f;
#X obj 247 1330 *;
#X text 3846 1882 comment;
#X obj 286 1354 <= 84;
#X obj 220 1354 >= 36;
#X obj 247 1380 *;
#X obj 124 1330 - 60;
#X floatatom 124 1430 5 0 0 0 - - -;
#X obj 124 1380 * -1;
#X obj 45 193 hsl 128 15 0 100 0 0 \$0-startpoint-sld-s \$0-startpoint-sld-r
empty -2 -8 0 10 -262144 -1 -1 0 1;
#X obj 183 194 nbx 5 14 0 100 0 0 \$0-startpoint-nbx-s \$0-startpoint-nbx-r
empty 0 -8 0 10 -262144 -1 -1 0 256;
#X text 242 192 %;
#X obj 45 233 hsl 128 15 0 100 0 0 \$0-endpoint-sld-s \$0-endpoint-sld-r
empty -2 -8 0 10 -262144 -1 -1 0 1;
#X obj 183 234 nbx 5 14 0 100 0 0 \$0-endpoint-nbx-s \$0-endpoint-nbx-r
empty 0 -8 0 10 -262144 -1 -1 0 256;
#X text 242 232 %;
#X obj 829 139 gui.link 3 \$0-startpoint;
#X obj 829 170 gui.link 4 \$0-endpoint;
#X obj 45 275 hsl 128 15 25 400 0 0 \$0-timescale-sld-s \$0-timescale-sld-r
empty -2 -8 0 10 -262144 -1 -1 0 1;
#X obj 183 276 nbx 5 14 25 400 0 0 \$0-timescale-nbx-s \$0-timescale-nbx-r
empty 0 -8 0 10 -262144 -1 -1 25 256;
#X text 242 274 %;
#X obj 829 201 gui.link 5 \$0-timescale;
#X text 597 58 [Polyphony Mode];
#X text 328 58 [Time Stretching Mode];
#X text 381 94 None;
#X text 381 125 Fixed;
#X obj 386 208 hsl 64 15 1 8 0 0 \$0-samplingdelay-sld-s \$0-samplingdelay-sld-r
empty -2 -8 0 10 -262144 -1 -1 0 1;
#X obj 459 209 nbx 1 14 1 8 0 0 \$0-samplingdelay-nbx-s \$0-samplingdelay-nbx-r
empty 0 -8 0 10 -262144 -1 -1 1 256;
#X obj 829 232 gui.link 6 \$0-samplingdelay;
#X text 830 19 // GUI logics;
#X obj 1746 1002 int;
#X floatatom 1746 1035 5 0 0 0 - - -;
#X obj 1746 967 r \$0-samplingdelay;
#X text 381 156 Adaptive:;
#X text 242 151 semitone;
#X text 482 208 beat;
#X text 13 318 [Envelope];
#X obj 362 94 cnv 15 15 15 empty tMode1c empty 20 12 0 14 -66577 -66577
0;
#X obj 362 126 cnv 15 15 15 empty tMode2c empty 20 12 0 14 -262144
-66577 0;
#X obj 362 158 cnv 15 15 15 empty tMode3c empty 20 12 0 14 -262144
-66577 0;
#X obj 344 95 bng 15 250 50 0 \$0-tMode1b empty empty 17 7 0 10 -262144
-1 -1;
#X obj 344 126 bng 15 250 50 0 \$0-tMode2b empty empty 17 7 0 10 -262144
-1 -1;
#X obj 344 158 bng 15 250 50 0 \$0-tMode3b empty empty 17 7 0 10 -262144
-1 -1;
#X obj 254 67 loadbang;
#X obj 1080 182 int 1;
#X obj 1225 182 int 2;
#X obj 1376 182 int 3;
#X obj 20 503 r \$0-loadWav;
#X obj 1506 968 r \$0-tMode;
#X obj 247 1231 r \$0-autoPitch;
#X obj 1081 47 r \$0-tMode1b;
#X obj 1224 47 r \$0-tMode2b;
#X obj 1377 47 r \$0-tMode3b;
#X obj 1225 227 s \$0-tMode;
#X floatatom 1507 1061 5 0 0 0 - - -;
#X msg 1081 83 \; tMode1c color 2;
#X msg 1081 133 \; tMode1c color 0;
#X msg 1224 83 \; tMode2c color 2;
#X msg 1224 133 \; tMode2c color 0;
#X msg 1377 83 \; tMode3c color 2;
#X msg 1377 133 \; tMode3c color 0;
#X obj 829 386 array define sampleWave;
#X msg 20 764 read -resize \$1 sampleWave;
#X obj 21 1186 tabread4~ sampleWave;
#X msg 1130 283 gui redraw;
#X obj 1130 307 s camomile;
#X obj 44 374 hsl 128 15 0 5000 0 0 \$0-attack-sld-s \$0-attack-sld-r
empty -2 -8 0 10 -262144 -1 -1 0 1;
#X obj 182 375 nbx 5 14 0 5000 0 0 \$0-attack-nbx-s \$0-attack-nbx-r
empty 0 -8 0 10 -262144 -1 -1 0 256;
#X text 241 373 ms;
#X obj 44 415 hsl 128 15 0 5000 0 0 \$0-release-sld-s \$0-release-sld-r
empty -2 -8 0 10 -262144 -1 -1 0 1;
#X obj 182 416 nbx 5 14 0 5000 0 0 \$0-release-nbx-s \$0-release-nbx-r
empty 0 -8 0 10 -262144 -1 -1 0 256;
#X text 241 414 ms;
#X obj 829 263 gui.link 7 \$0-attack;
#X obj 829 294 gui.link 8 \$0-release;
#X obj 829 325 gui.link 9 \$0-portamento;
#X obj 633 94 cnv 15 15 15 empty pMode1c empty 20 12 0 14 -66577 -66577
0;
#X obj 633 126 cnv 15 15 15 empty pMode2c empty 20 12 0 14 -262144
-66577 0;
#X obj 633 158 cnv 15 15 15 empty pMode3c empty 20 12 0 14 -262144
-66577 0;
#X obj 615 95 bng 15 250 50 0 \$0-pMode1b empty empty 17 7 0 10 -262144
-1 -1;
#X obj 615 126 bng 15 250 50 0 \$0-pMode2b empty empty 17 7 0 10 -262144
-1 -1;
#X obj 615 158 bng 15 250 50 0 \$0-pMode3b empty empty 17 7 0 10 -262144
-1 -1;
#X text 652 94 Poly;
#X text 652 125 Mono;
#X text 652 156 Legato;
#X obj 525 65 loadbang;
#X obj 1538 182 int 1;
#X obj 1683 182 int 2;
#X obj 1834 182 int 3;
#X msg 1588 283 gui redraw;
#X obj 1588 307 s camomile;
#X obj 1539 47 r \$0-pMode1b;
#X obj 1682 47 r \$0-pMode2b;
#X obj 1835 47 r \$0-pMode3b;
#X msg 1539 83 \; pMode1c color 2;
#X msg 1539 133 \; pMode1c color 0;
#X msg 1682 83 \; pMode2c color 2;
#X msg 1682 133 \; pMode2c color 0;
#X msg 1835 83 \; pMode3c color 2;
#X msg 1835 133 \; pMode3c color 0;
#X obj 1683 227 s \$0-pMode;
#X floatatom 841 1528 5 0 0 0 - - -;
#X obj 841 1501 r \$0-pMode;
#X obj 618 207 hsl 64 15 0 1000 0 0 \$0-portamento-sld-s \$0-portamento-sld-r
empty -2 -8 0 10 -262144 -1 -1 0 1;
#X obj 693 208 nbx 4 14 0 1000 0 0 \$0-portamento-nbx-s \$0-portamento-nbx-r
empty 0 -8 0 10 -262144 -1 -1 0 256;
#X text 742 207 ms;
#X text 40 90 * Volume;
#X text 40 131 * Pitch (Relative to C4);
#X text 40 172 * Start Position;
#X text 40 212 * End Position;
#X text 40 254 * Time Scale;
#X text 39 353 * Attack;
#X text 39 393 * Release;
#X text 381 184 * Sampling Delay;
#X text 613 184 * Portamento;
#X obj 124 1231 sigmund~ note;
#X obj 171 1525 send \$0-pitch-sld-s;
#X obj 1012 387 loadbang;
#X obj 1089 386 array define window 4096;
#X obj 758 1874 sampling.core sampleWave window;
#X obj 940 1561 - 60;
#X obj 940 1601 +;
#X obj 982 1561 r \$0-pitch;
#X obj 1239 1448 r \$0-volume;
#X floatatom 1205 1614 5 0 0 0 - - -;
#X obj 1238 1536 dbtopow;
#X obj 1240 1478 float;
#X obj 1239 1508 + 100;
#X obj 1205 1584 *;
#X obj 659 643 r \$0-timescale;
#X text 826 360 // Array initialization;
#X msg 1012 424 \; window read hann4096.txt;
#X obj 173 1480 spigot;
#X obj 413 643 r \$0-startpoint;
#X obj 547 644 r \$0-endpoint;
#X obj 414 796 *;
#X text 414 607 // Time labels calculation;
#X obj 517 786 *;
#X obj 661 1706 pack 0 f f f;
#X obj 644 789 -;
#X obj 644 826 abs;
#X obj 626 856 *;
#X obj 626 892 *;
#X obj 413 739 t b f;
#X obj 547 741 t b f;
#X obj 661 743 t b f;
#X floatatom 414 866 5 0 0 0 - - -;
#X floatatom 517 865 5 0 0 0 - - -;
#X floatatom 626 934 5 0 0 0 - - -;
#X floatatom 413 706 5 0 0 0 - - -;
#X floatatom 545 706 5 0 0 0 - - -;
#X floatatom 660 708 5 0 0 0 - - -;
#X floatatom 230 836 5 0 0 0 - - -;
#X obj 413 667 * 0.01;
#X obj 547 668 * 0.01;
#X obj 659 667 * 0.01;
#X obj 612 1756 t b f;
#X obj 612 1787 delay;
#X msg 661 1730 \$2 \, \$3 \$4;
#X msg 612 1731 \$4;
#X obj 810 999 pow;
#X obj 844 935 / 12;
#X obj 763 938 float 2;
#X obj 632 1129 spigot;
#X obj 672 1097 == 2;
#X obj 826 1123 spigot;
#X obj 832 1091 == 1;
#X obj 911 1648 t b f;
#X obj 824 1055 /;
#X obj 810 1026 t b f;
#X obj 1508 992 t b f;
#X obj 1507 1030 int;
#X text 761 910 // Adjust duration to match the frequency;
#X text 406 1028 // Start & end sample \, duration in ms;
#X obj 1102 1418 spigot;
#X obj 1154 1388 ||;
#X obj 1187 1261 r \$0-notePlaying;
#X obj 890 1422 s \$0-notePlaying;
#X obj 1160 1334 ==;
#X floatatom 1187 1297 5 0 0 0 - - -;
#X obj 924 1326 spigot 1;
#X obj 1000 1299 > 0;
#X obj 1069 1248 swap;
#X obj 1102 1462 select 0;
#X obj 1103 1504 int -1;
#X obj 1103 1535 s \$0-notePlaying;
#X obj 891 1355 t f b f;
#X obj 701 1563 spigot 1;
#X obj 841 1557 != 3;
#X obj 815 1582 ||;
#X obj 798 1555 < 0;
#X floatatom 798 1528 5 0 0 0 - - -;
#X obj 613 1839 int -1;
#X obj 613 1873 s \$0-notePlaying;
#X obj 1337 1681 value \$0-release;
#X obj 902 1771 line;
#X obj 913 1707 pack;
#X msg 901 1744 \$1 \$2;
#X obj 1049 1620 r \$0-portamento;
#X obj 989 1695 *;
#X obj 1049 1648 t b f;
#X obj 992 1650 != -1;
#X text 873 1913 // Sampling in mono and legato modes;
#X obj 1079 1807 line;
#X msg 1079 1783 \$1 \$2;
#X obj 1079 1757 pack;
#X obj 1198 1681 value \$0-attack;
#X obj 1205 1647 t f b;
#X obj 1130 1732 spigot;
#X obj 1315 1738 spigot;
#X obj 1382 1707 == 0;
#X msg 822 1818 stop \, 0;
#X obj 1204 1712 > 0;
#X obj 1650 966 r playhead;
#X obj 1650 990 route bpm;
#X text 1516 939 // Delay calculation in the adaptive mode;
#X obj 1654 1095 /;
#X obj 1650 1028 t b f;
#X obj 1697 1136 *;
#X obj 1563 1134 == 3;
#X obj 1630 1174 *;
#X obj 1630 1198 s \$0-delayedTime;
#X obj 1027 1849 pipe;
#X obj 910 1832 pipe;
#X obj 1215 1801 r \$0-delayedTime;
#X floatatom 1215 1825 5 0 0 0 - - -;
#X obj 1601 1061 float 60000;
#X obj 992 1104 notein;
#X obj 993 1133 pack f f;
#X obj 993 1166 spigot;
#X floatatom 1065 1130 5 0 0 0 - - -;
#X obj 1065 1103 r \$0-pMode;
#X obj 1065 1159 != 1;
#X obj 994 1203 unpack f f;
#X obj 2134 1229 notein;
#X obj 2135 1258 pack f f;
#X obj 2135 1291 spigot;
#X floatatom 2207 1255 5 0 0 0 - - -;
#X obj 2207 1228 r \$0-pMode;
#X obj 2136 1328 unpack f f;
#X obj 2207 1284 == 1;
#X obj 2136 1363 poly 16 1;
#X obj 347 988 s \$0-regionLeft;
#X obj 474 987 s \$0-regionRight;
#X obj 613 986 s \$0-t1Duration;
#X obj 2259 1348 r \$0-regionLeft;
#X obj 2390 1351 r \$0-regionRight;
#X obj 2595 1355 r \$0-t1Duration;
#X obj 3008 1364 r \$0-delayedTime;
#X obj 2913 1362 r \$0-volume;
#X obj 2508 1352 r \$0-pitch;
#X obj 2722 1358 r \$0-attack;
#X obj 2811 1359 r \$0-release;
#X obj 3150 1365 r \$0-tMode;
#X text 2385 1594 // Sampling in poly mode;
#X obj 2136 1472 route 1 2 3 4 5 6 7 8 9 10 11 12 13 14 15 16, f 142
;
#X obj 2136 1523 grouped.unit;
#X obj 2197 1552 grouped.unit;
#X obj 2259 1524 grouped.unit;
#X obj 2321 1553 grouped.unit;
#X obj 2382 1523 grouped.unit;
#X obj 2443 1552 grouped.unit;
#X obj 2505 1524 grouped.unit;
#X obj 2567 1553 grouped.unit;
#X obj 2632 1525 grouped.unit;
#X obj 2693 1554 grouped.unit;
#X obj 2755 1526 grouped.unit;
#X obj 2817 1555 grouped.unit;
#X obj 2878 1525 grouped.unit;
#X obj 2939 1554 grouped.unit;
#X obj 3001 1526 grouped.unit;
#X obj 3063 1555 grouped.unit;
#X obj 2136 1417 pack 1 f f f f f f f f f f f, f 142;
#X obj 777 1614 r \$0-tMode;
#X obj 684 1663 spigot;
#X obj 777 1662 < 3;
#X obj 1673 1824 pack 0 f f f, f 30;
#X obj 1624 1890 t b f;
#X obj 1720 1705 r \$0-regionLeft;
#X obj 1743 1731 r \$0-regionRight;
#X floatatom 1733 1527 5 0 0 0 - - -;
#X obj 2019 1699 -;
#X obj 2037 1646 r \$0-delayedTime;
#X obj 2019 1723 * -1;
#X obj 1723 1495 timer;
#X obj 1735 1574 spigot;
#X obj 1624 1388 spigot;
#X obj 1663 1331 r \$0-pMode;
#X obj 1905 1337 spigot;
#X obj 1944 1280 r \$0-pMode;
#X obj 1944 1304 == 2;
#X obj 1663 1355 == 3;
#X obj 1624 1281 r \$0-notePlaying;
#X obj 1624 1305 select -1;
#X obj 1901 1650 r \$0-release;
#X obj 1879 1700 +;
#X obj 1672 1794 pipe;
#X msg 1695 1855 \$2 \, \$3 \$4;
#X msg 1646 1856 \$4;
#X obj 1740 1794 pipe;
#X obj 1810 1789 pipe;
#X obj 1878 1790 pipe;
#X obj 1494 1338 spigot;
#X obj 1533 1281 r \$0-pMode;
#X obj 1533 1305 == 3;
#X obj 1802 1282 r \$0-notePlaying;
#X obj 1624 1944 delay;
#X obj 1735 1643 t b b f f;
#X obj 1847 1446 spigot;
#X obj 1905 1362 t f b b;
#X obj 1953 1395 int -1;
#X obj 1953 1419 != -1;
#X text 261 23 Load .wav File;
#X connect 2 0 29 0;
#X connect 2 0 184 0;
#X connect 2 0 34 0;
#X connect 2 1 31 0;
#X connect 3 0 95 0;
#X connect 5 0 1 0;
#X connect 6 0 3 0;
#X connect 7 0 96 0;
#X connect 8 0 35 0;
#X connect 8 0 40 0;
#X connect 9 0 3 0;
#X connect 10 0 3 0;
#X connect 11 0 10 0;
#X connect 16 0 9 0;
#X connect 19 0 35 1;
#X connect 28 0 34 1;
#X connect 28 0 173 0;
#X connect 29 0 30 0;
#X connect 30 0 28 0;
#X connect 31 0 29 1;
#X connect 33 0 7 0;
#X connect 34 0 33 0;
#X connect 35 0 38 0;
#X connect 35 0 37 0;
#X connect 37 0 39 1;
#X connect 38 0 39 0;
#X connect 39 0 164 1;
#X connect 40 0 42 0;
#X connect 41 0 164 0;
#X connect 42 0 41 0;
#X connect 63 0 64 0;
#X connect 64 0 250 1;
#X connect 65 0 63 0;
#X connect 76 0 73 0;
#X connect 77 0 86 0;
#X connect 77 0 97 0;
#X connect 78 0 86 0;
#X connect 78 0 97 0;
#X connect 79 0 86 0;
#X connect 79 0 97 0;
#X connect 80 0 5 0;
#X connect 81 0 202 0;
#X connect 82 0 19 0;
#X connect 83 0 88 0;
#X connect 83 0 88 0;
#X connect 83 0 91 0;
#X connect 83 0 93 0;
#X connect 83 0 77 0;
#X connect 84 0 89 0;
#X connect 84 0 90 0;
#X connect 84 0 93 0;
#X connect 84 0 78 0;
#X connect 85 0 92 0;
#X connect 85 0 89 0;
#X connect 85 0 91 0;
#X connect 85 0 79 0;
#X connect 87 0 196 0;
#X connect 87 0 198 0;
#X connect 87 0 251 0;
#X connect 95 0 2 0;
#X connect 96 0 4 0;
#X connect 96 0 4 1;
#X connect 96 0 147 0;
#X connect 97 0 98 0;
#X connect 117 0 111 0;
#X connect 118 0 121 0;
#X connect 118 0 132 0;
#X connect 119 0 121 0;
#X connect 119 0 132 0;
#X connect 120 0 121 0;
#X connect 120 0 132 0;
#X connect 121 0 122 0;
#X connect 123 0 126 0;
#X connect 123 0 126 0;
#X connect 123 0 129 0;
#X connect 123 0 131 0;
#X connect 123 0 118 0;
#X connect 124 0 127 0;
#X connect 124 0 128 0;
#X connect 124 0 131 0;
#X connect 124 0 119 0;
#X connect 125 0 130 0;
#X connect 125 0 127 0;
#X connect 125 0 129 0;
#X connect 125 0 120 0;
#X connect 133 0 220 0;
#X connect 134 0 133 0;
#X connect 147 0 8 0;
#X connect 149 0 163 0;
#X connect 152 0 153 0;
#X connect 153 0 199 0;
#X connect 154 0 153 1;
#X connect 155 0 158 0;
#X connect 156 0 239 0;
#X connect 157 0 160 1;
#X connect 158 0 159 0;
#X connect 159 0 157 0;
#X connect 160 0 156 0;
#X connect 161 0 187 0;
#X connect 164 0 148 0;
#X connect 165 0 185 0;
#X connect 166 0 186 0;
#X connect 167 0 178 0;
#X connect 169 0 179 0;
#X connect 170 0 190 0;
#X connect 170 0 191 0;
#X connect 171 0 172 0;
#X connect 172 0 173 1;
#X connect 173 0 174 0;
#X connect 174 0 180 0;
#X connect 175 0 184 0;
#X connect 175 0 28 0;
#X connect 175 1 167 1;
#X connect 175 1 171 1;
#X connect 176 0 184 0;
#X connect 176 0 28 0;
#X connect 176 1 169 1;
#X connect 176 1 171 0;
#X connect 177 0 28 0;
#X connect 177 0 182 0;
#X connect 177 1 174 1;
#X connect 178 0 170 1;
#X connect 178 0 274 0;
#X connect 179 0 170 2;
#X connect 179 0 275 0;
#X connect 180 0 195 0;
#X connect 180 0 200 0;
#X connect 180 0 276 0;
#X connect 181 0 175 0;
#X connect 182 0 176 0;
#X connect 183 0 177 0;
#X connect 184 0 167 0;
#X connect 184 0 169 0;
#X connect 185 0 181 0;
#X connect 186 0 182 0;
#X connect 187 0 183 0;
#X connect 188 0 189 0;
#X connect 188 1 189 1;
#X connect 189 0 151 0;
#X connect 189 0 243 0;
#X connect 189 0 224 0;
#X connect 190 0 151 1;
#X connect 191 0 188 0;
#X connect 192 0 201 0;
#X connect 193 0 192 1;
#X connect 194 0 192 0;
#X connect 195 0 170 3;
#X connect 196 0 195 1;
#X connect 197 0 170 3;
#X connect 198 0 197 1;
#X connect 199 0 194 0;
#X connect 199 1 193 0;
#X connect 199 1 228 0;
#X connect 200 0 197 0;
#X connect 201 0 180 0;
#X connect 201 1 200 1;
#X connect 202 0 180 0;
#X connect 202 1 203 0;
#X connect 203 0 87 0;
#X connect 206 0 160 0;
#X connect 206 0 215 0;
#X connect 207 0 206 1;
#X connect 208 0 211 0;
#X connect 210 0 207 0;
#X connect 211 0 210 1;
#X connect 211 0 223 0;
#X connect 211 0 233 0;
#X connect 212 0 218 0;
#X connect 213 0 207 1;
#X connect 213 0 212 1;
#X connect 214 0 206 0;
#X connect 214 1 210 0;
#X connect 215 0 216 0;
#X connect 216 0 217 0;
#X connect 218 0 209 0;
#X connect 218 1 219 0;
#X connect 218 1 223 0;
#X connect 218 2 152 0;
#X connect 219 0 306 0;
#X connect 219 0 334 0;
#X connect 220 0 221 1;
#X connect 221 0 219 1;
#X connect 222 0 221 0;
#X connect 223 0 222 0;
#X connect 224 0 225 0;
#X connect 226 0 241 0;
#X connect 227 0 255 0;
#X connect 228 0 229 0;
#X connect 229 0 227 0;
#X connect 230 0 232 0;
#X connect 231 0 228 1;
#X connect 232 1 231 1;
#X connect 233 0 231 0;
#X connect 235 0 254 0;
#X connect 236 0 235 0;
#X connect 237 0 236 0;
#X connect 238 0 240 0;
#X connect 239 0 237 0;
#X connect 239 1 238 0;
#X connect 239 1 226 0;
#X connect 240 0 237 1;
#X connect 241 0 237 1;
#X connect 242 0 241 1;
#X connect 243 0 235 0;
#X connect 244 0 240 1;
#X connect 245 0 246 0;
#X connect 246 0 249 0;
#X connect 248 0 250 0;
#X connect 249 0 258 0;
#X connect 249 1 248 1;
#X connect 250 0 252 0;
#X connect 251 0 252 1;
#X connect 251 0 317 1;
#X connect 252 0 253 0;
#X connect 254 0 151 3;
#X connect 255 0 151 2;
#X connect 256 0 257 0;
#X connect 257 0 255 1;
#X connect 257 0 254 1;
#X connect 258 0 248 0;
#X connect 259 0 260 0;
#X connect 259 1 260 1;
#X connect 260 0 261 0;
#X connect 261 0 265 0;
#X connect 262 0 264 0;
#X connect 263 0 262 0;
#X connect 264 0 261 1;
#X connect 265 0 212 0;
#X connect 265 0 214 0;
#X connect 265 1 213 0;
#X connect 265 1 214 1;
#X connect 265 1 242 0;
#X connect 265 1 244 0;
#X connect 266 0 267 0;
#X connect 266 1 267 1;
#X connect 267 0 268 0;
#X connect 268 0 271 0;
#X connect 269 0 272 0;
#X connect 270 0 269 0;
#X connect 271 0 273 0;
#X connect 271 1 273 1;
#X connect 272 0 268 1;
#X connect 273 0 304 0;
#X connect 273 1 304 1;
#X connect 273 2 304 2;
#X connect 277 0 304 3;
#X connect 278 0 304 4;
#X connect 279 0 304 6;
#X connect 280 0 304 10;
#X connect 281 0 304 9;
#X connect 282 0 304 5;
#X connect 283 0 304 7;
#X connect 284 0 304 8;
#X connect 285 0 304 11;
#X connect 287 0 288 0;
#X connect 287 1 289 0;
#X connect 287 2 290 0;
#X connect 287 3 291 0;
#X connect 287 4 292 0;
#X connect 287 5 293 0;
#X connect 287 6 294 0;
#X connect 287 7 295 0;
#X connect 287 8 296 0;
#X connect 287 9 297 0;
#X connect 287 10 298 0;
#X connect 287 11 299 0;
#X connect 287 12 300 0;
#X connect 287 13 301 0;
#X connect 287 14 302 0;
#X connect 287 15 303 0;
#X connect 304 0 287 0;
#X connect 305 0 307 0;
#X connect 306 0 170 0;
#X connect 307 0 306 1;
#X connect 308 0 330 0;
#X connect 308 0 329 0;
#X connect 309 0 338 0;
#X connect 309 1 338 1;
#X connect 310 0 331 0;
#X connect 311 0 332 0;
#X connect 312 0 317 0;
#X connect 313 0 315 0;
#X connect 314 0 313 1;
#X connect 315 0 328 1;
#X connect 315 0 331 1;
#X connect 315 0 332 1;
#X connect 315 0 333 1;
#X connect 316 0 312 0;
#X connect 317 0 339 0;
#X connect 318 0 316 1;
#X connect 319 0 323 0;
#X connect 320 0 341 0;
#X connect 321 0 322 0;
#X connect 322 0 320 1;
#X connect 323 0 318 1;
#X connect 324 0 325 0;
#X connect 325 0 318 0;
#X connect 326 0 327 1;
#X connect 327 0 333 0;
#X connect 328 0 308 0;
#X connect 329 0 151 1;
#X connect 330 0 309 0;
#X connect 331 0 308 1;
#X connect 332 0 308 2;
#X connect 333 0 308 3;
#X connect 334 0 316 0;
#X connect 335 0 336 0;
#X connect 336 0 334 1;
#X connect 337 0 320 0;
#X connect 339 1 328 0;
#X connect 339 2 327 0;
#X connect 339 3 313 0;
#X connect 340 0 316 1;
#X connect 341 0 342 0;
#X connect 341 1 316 0;
#X connect 341 2 340 0;
#X connect 342 0 343 0;
#X connect 343 0 340 1;
#X coords 0 -1 1 1 800 450 2 4 4;
